<mxfile host="app.diagrams.net" modified="2021-10-24T18:08:26.649Z" agent="5.0 (Windows NT 10.0; Win64; x64) AppleWebKit/537.36 (KHTML, like Gecko) Chrome/94.0.4606.81 Safari/537.36" etag="rRw1vkSq2v3b5BS1eZvh" version="15.5.5" type="github">
  <diagram name="Page-1" id="c4acf3e9-155e-7222-9cf6-157b1a14988f">
    <mxGraphModel dx="782" dy="506" grid="1" gridSize="10" guides="1" tooltips="1" connect="1" arrows="1" fold="1" page="1" pageScale="1" pageWidth="850" pageHeight="1100" background="none" math="0" shadow="0">
      <root>
        <mxCell id="0" />
        <mxCell id="1" parent="0" />
        <mxCell id="5d2195bd80daf111-18" value="&lt;p style=&quot;margin: 0px ; margin-top: 4px ; text-align: center&quot;&gt;&lt;i&gt;Nutricionista&lt;/i&gt;&lt;/p&gt;&lt;hr size=&quot;1&quot;&gt;&lt;p style=&quot;margin: 0px ; margin-left: 4px&quot;&gt;&lt;br&gt;&lt;/p&gt;&lt;hr size=&quot;1&quot;&gt;&lt;p style=&quot;margin: 0px 0px 0px 4px&quot;&gt;&lt;br&gt;&lt;br&gt;&lt;/p&gt;" style="verticalAlign=top;align=left;overflow=fill;fontSize=12;fontFamily=Helvetica;html=1;rounded=0;shadow=0;comic=0;labelBackgroundColor=none;strokeWidth=1" parent="1" vertex="1">
          <mxGeometry x="40" y="640" width="190" height="80" as="geometry" />
        </mxCell>
        <mxCell id="BtYxnqv_vwhGQVQcCRWe-1" value="&lt;p style=&quot;margin: 0px ; margin-top: 4px ; text-align: center&quot;&gt;&lt;i&gt;Funcionarios&lt;/i&gt;&lt;/p&gt;&lt;hr size=&quot;1&quot;&gt;&lt;p style=&quot;margin: 0px ; margin-left: 4px&quot;&gt;&lt;br&gt;&lt;/p&gt;&lt;hr size=&quot;1&quot;&gt;&lt;p style=&quot;margin: 0px 0px 0px 4px&quot;&gt;&lt;br&gt;&lt;/p&gt;" style="verticalAlign=top;align=left;overflow=fill;fontSize=12;fontFamily=Helvetica;html=1;rounded=0;shadow=0;comic=0;labelBackgroundColor=none;strokeWidth=1" parent="1" vertex="1">
          <mxGeometry x="325" y="950" width="200" height="110" as="geometry" />
        </mxCell>
        <mxCell id="BtYxnqv_vwhGQVQcCRWe-2" value="&lt;p style=&quot;margin: 0px ; margin-top: 4px ; text-align: center&quot;&gt;&lt;i&gt;Paciente&lt;/i&gt;&lt;/p&gt;&lt;hr size=&quot;1&quot;&gt;&lt;p style=&quot;margin: 0px ; margin-left: 4px&quot;&gt;- idNutricionista : Inteiro&lt;br&gt;&lt;/p&gt;&lt;hr size=&quot;1&quot;&gt;&lt;p style=&quot;margin: 0px 0px 0px 4px&quot;&gt;+ GetidNutricionista() : String&lt;br&gt;&lt;/p&gt;&lt;p style=&quot;margin: 0px 0px 0px 4px&quot;&gt;+ SetIdNutricionista() : String&lt;/p&gt;" style="verticalAlign=top;align=left;overflow=fill;fontSize=12;fontFamily=Helvetica;html=1;rounded=0;shadow=0;comic=0;labelBackgroundColor=none;strokeWidth=1" parent="1" vertex="1">
          <mxGeometry x="610" y="640" width="190" height="90" as="geometry" />
        </mxCell>
        <mxCell id="BtYxnqv_vwhGQVQcCRWe-3" value="&lt;p style=&quot;margin: 0px ; margin-top: 4px ; text-align: center&quot;&gt;&lt;i&gt;Pessoa&lt;/i&gt;&lt;/p&gt;&lt;hr size=&quot;1&quot;&gt;&lt;p style=&quot;margin: 0px ; margin-left: 4px&quot;&gt;- ID : Inteiro&lt;/p&gt;&lt;p style=&quot;margin: 0px ; margin-left: 4px&quot;&gt;- CPF: String&lt;br&gt;- Nome: String&lt;/p&gt;&lt;p style=&quot;margin: 0px ; margin-left: 4px&quot;&gt;- Email: String&lt;/p&gt;&lt;p style=&quot;margin: 0px ; margin-left: 4px&quot;&gt;- CEP: String&lt;/p&gt;&lt;p style=&quot;margin: 0px ; margin-left: 4px&quot;&gt;- Logradouro: String&lt;/p&gt;&lt;p style=&quot;margin: 0px ; margin-left: 4px&quot;&gt;- Numero: String&lt;/p&gt;&lt;p style=&quot;margin: 0px ; margin-left: 4px&quot;&gt;- Bairro: String&lt;/p&gt;&lt;p style=&quot;margin: 0px ; margin-left: 4px&quot;&gt;- Cidade: String&lt;/p&gt;&lt;p style=&quot;margin: 0px ; margin-left: 4px&quot;&gt;- Estado: String&lt;/p&gt;&lt;p style=&quot;margin: 0px ; margin-left: 4px&quot;&gt;- Telefone: String&lt;/p&gt;&lt;p style=&quot;margin: 0px ; margin-left: 4px&quot;&gt;- dt_Inicio: Date&lt;/p&gt;&lt;p style=&quot;margin: 0px ; margin-left: 4px&quot;&gt;- dt_Final: Date&lt;br&gt;&lt;/p&gt;&lt;hr size=&quot;1&quot;&gt;&lt;p style=&quot;margin: 0px 0px 0px 4px&quot;&gt;&lt;span&gt;+ Consultar() : Void&lt;/span&gt;&lt;br&gt;&lt;/p&gt;&lt;p style=&quot;margin: 0px 0px 0px 4px&quot;&gt;+ Cadastro() : Void&lt;/p&gt;&lt;p style=&quot;margin: 0px 0px 0px 4px&quot;&gt;+ Atualizar() : Void&lt;/p&gt;&lt;p style=&quot;margin: 0px 0px 0px 4px&quot;&gt;+ GetCPF() : String&lt;br&gt;+ GetNome() : String&lt;/p&gt;&lt;p style=&quot;margin: 0px 0px 0px 4px&quot;&gt;+ GetEmail() :&amp;nbsp;String&lt;/p&gt;&lt;p style=&quot;margin: 0px 0px 0px 4px&quot;&gt;+ GetCEP() :&amp;nbsp;String&lt;/p&gt;&lt;p style=&quot;margin: 0px 0px 0px 4px&quot;&gt;+ GetLogradouro() :&amp;nbsp;String&lt;/p&gt;&lt;p style=&quot;margin: 0px 0px 0px 4px&quot;&gt;+ GetNumero() :&amp;nbsp;String&lt;/p&gt;&lt;p style=&quot;margin: 0px 0px 0px 4px&quot;&gt;+ GetBairro() :&amp;nbsp;String&lt;/p&gt;&lt;p style=&quot;margin: 0px 0px 0px 4px&quot;&gt;+ GetCidade() :&amp;nbsp;String&lt;/p&gt;&lt;p style=&quot;margin: 0px 0px 0px 4px&quot;&gt;+ GetEstado() :&amp;nbsp;String&lt;/p&gt;&lt;p style=&quot;margin: 0px 0px 0px 4px&quot;&gt;+ GetTelefone() :&amp;nbsp;String&lt;/p&gt;&lt;p style=&quot;margin: 0px 0px 0px 4px&quot;&gt;+ Getdt_Inicio() :&amp;nbsp;Date&lt;/p&gt;&lt;p style=&quot;margin: 0px 0px 0px 4px&quot;&gt;+ Getdt_Final() :&amp;nbsp;Date&lt;/p&gt;&lt;p style=&quot;margin: 0px 0px 0px 4px&quot;&gt;+ SetCPF() : String&lt;br&gt;+ SetNome() : String&lt;/p&gt;&lt;p style=&quot;margin: 0px 0px 0px 4px&quot;&gt;+ SetEmail() :&amp;nbsp;String&lt;/p&gt;&lt;p style=&quot;margin: 0px 0px 0px 4px&quot;&gt;+ SetCEP() :&amp;nbsp;String&lt;/p&gt;&lt;p style=&quot;margin: 0px 0px 0px 4px&quot;&gt;+ SetLogradouro() :&amp;nbsp;String&lt;/p&gt;&lt;p style=&quot;margin: 0px 0px 0px 4px&quot;&gt;+ SetNumero() :&amp;nbsp;String&lt;/p&gt;&lt;p style=&quot;margin: 0px 0px 0px 4px&quot;&gt;+ SetBairro() :&amp;nbsp;String&lt;/p&gt;&lt;p style=&quot;margin: 0px 0px 0px 4px&quot;&gt;+ SetCidade() :&amp;nbsp;String&lt;/p&gt;&lt;p style=&quot;margin: 0px 0px 0px 4px&quot;&gt;+ SetEstado() :&amp;nbsp;String&lt;/p&gt;&lt;p style=&quot;margin: 0px 0px 0px 4px&quot;&gt;+ SetTelefone() :&amp;nbsp;String&lt;/p&gt;&lt;p style=&quot;margin: 0px 0px 0px 4px&quot;&gt;+ Setdt_Inicio() :&amp;nbsp;Date&lt;/p&gt;&lt;p style=&quot;margin: 0px 0px 0px 4px&quot;&gt;+ Setdt_Final() :&amp;nbsp;Date&lt;/p&gt;" style="verticalAlign=top;align=left;overflow=fill;fontSize=12;fontFamily=Helvetica;html=1;rounded=0;shadow=0;comic=0;labelBackgroundColor=none;strokeWidth=1" parent="1" vertex="1">
          <mxGeometry x="320" y="70" width="200" height="620" as="geometry" />
        </mxCell>
        <mxCell id="BtYxnqv_vwhGQVQcCRWe-4" value="" style="endArrow=block;endSize=16;endFill=0;html=1;rounded=0;exitX=0.5;exitY=0;exitDx=0;exitDy=0;entryX=1;entryY=0.25;entryDx=0;entryDy=0;" parent="1" source="BtYxnqv_vwhGQVQcCRWe-2" target="BtYxnqv_vwhGQVQcCRWe-3" edge="1">
          <mxGeometry width="160" relative="1" as="geometry">
            <mxPoint x="350" y="680" as="sourcePoint" />
            <mxPoint x="540" y="290" as="targetPoint" />
            <Array as="points">
              <mxPoint x="705" y="278" />
            </Array>
          </mxGeometry>
        </mxCell>
        <mxCell id="BtYxnqv_vwhGQVQcCRWe-5" value="" style="endArrow=block;endSize=16;endFill=0;html=1;rounded=0;exitX=0.5;exitY=0;exitDx=0;exitDy=0;entryX=0;entryY=0.25;entryDx=0;entryDy=0;" parent="1" source="5d2195bd80daf111-18" target="BtYxnqv_vwhGQVQcCRWe-3" edge="1">
          <mxGeometry width="160" relative="1" as="geometry">
            <mxPoint x="-30" y="230" as="sourcePoint" />
            <mxPoint x="250" y="350" as="targetPoint" />
            <Array as="points">
              <mxPoint x="135" y="278" />
            </Array>
          </mxGeometry>
        </mxCell>
        <mxCell id="BtYxnqv_vwhGQVQcCRWe-6" value="" style="endArrow=block;endSize=16;endFill=0;html=1;rounded=0;exitX=0.5;exitY=0;exitDx=0;exitDy=0;entryX=0.5;entryY=1;entryDx=0;entryDy=0;" parent="1" source="BtYxnqv_vwhGQVQcCRWe-1" target="BtYxnqv_vwhGQVQcCRWe-3" edge="1">
          <mxGeometry x="0.0667" width="160" relative="1" as="geometry">
            <mxPoint x="615" y="679.25" as="sourcePoint" />
            <mxPoint x="430" y="340" as="targetPoint" />
            <Array as="points" />
            <mxPoint as="offset" />
          </mxGeometry>
        </mxCell>
        <mxCell id="BtYxnqv_vwhGQVQcCRWe-7" value="&lt;p style=&quot;margin: 0px ; margin-top: 4px ; text-align: center&quot;&gt;&lt;i&gt;Caixa&lt;/i&gt;&lt;/p&gt;&lt;hr size=&quot;1&quot;&gt;&lt;p style=&quot;margin: 0px ; margin-left: 4px&quot;&gt;- Id : inteiro&lt;/p&gt;&lt;p style=&quot;margin: 0px ; margin-left: 4px&quot;&gt;- IdPaciente : Inteiro&lt;br&gt;&lt;/p&gt;&lt;p style=&quot;margin: 0px ; margin-left: 4px&quot;&gt;- Dt_vencimento : Date&lt;/p&gt;&lt;p style=&quot;margin: 0px ; margin-left: 4px&quot;&gt;- Valor : Float&lt;/p&gt;&lt;p style=&quot;margin: 0px ; margin-left: 4px&quot;&gt;- Frequencia : Inteiro&lt;/p&gt;&lt;p style=&quot;margin: 0px ; margin-left: 4px&quot;&gt;- Objetivo : String&amp;nbsp;&lt;/p&gt;&lt;hr size=&quot;1&quot;&gt;&lt;p style=&quot;margin: 0px 0px 0px 4px&quot;&gt;+ Calcular() : Float&lt;/p&gt;&lt;p style=&quot;margin: 0px 0px 0px 4px&quot;&gt;+ Atualizar() : Void&lt;/p&gt;&lt;p style=&quot;margin: 0px 0px 0px 4px&quot;&gt;+ GetId() : String&lt;br&gt;&lt;/p&gt;&lt;p style=&quot;margin: 0px 0px 0px 4px&quot;&gt;+ GetIdPaciente() : String&lt;/p&gt;&lt;p style=&quot;margin: 0px 0px 0px 4px&quot;&gt;+ GetDt_Vencimento() : Date&lt;/p&gt;&lt;p style=&quot;margin: 0px 0px 0px 4px&quot;&gt;&lt;span&gt;+ GetValor() : String&lt;/span&gt;&lt;/p&gt;&lt;p style=&quot;margin: 0px 0px 0px 4px&quot;&gt;+ GetFrequencia() : String&lt;br&gt;&lt;/p&gt;&lt;p style=&quot;margin: 0px 0px 0px 4px&quot;&gt;+ GetObjetivo() : String&lt;/p&gt;&lt;p style=&quot;margin: 0px 0px 0px 4px&quot;&gt;+ GetId() : String&lt;br&gt;&lt;/p&gt;&lt;p style=&quot;margin: 0px 0px 0px 4px&quot;&gt;+ GetIdPaciente() : String&lt;/p&gt;&lt;p style=&quot;margin: 0px 0px 0px 4px&quot;&gt;+ GetDt_Vencimento() : Date&lt;/p&gt;&lt;p style=&quot;margin: 0px 0px 0px 4px&quot;&gt;+ GetValor() : String&lt;/p&gt;&lt;p style=&quot;margin: 0px 0px 0px 4px&quot;&gt;+ GetFrequencia() : String&lt;br&gt;&lt;/p&gt;&lt;p style=&quot;margin: 0px 0px 0px 4px&quot;&gt;+ GetObjetivo() : String&lt;/p&gt;" style="verticalAlign=top;align=left;overflow=fill;fontSize=12;fontFamily=Helvetica;html=1;rounded=0;shadow=0;comic=0;labelBackgroundColor=none;strokeWidth=1" parent="1" vertex="1">
          <mxGeometry x="610" y="770" width="190" height="330" as="geometry" />
        </mxCell>
        <mxCell id="BtYxnqv_vwhGQVQcCRWe-8" value="" style="endArrow=block;endSize=16;endFill=0;html=1;rounded=0;exitX=0.5;exitY=0;exitDx=0;exitDy=0;entryX=0.5;entryY=1;entryDx=0;entryDy=0;" parent="1" source="BtYxnqv_vwhGQVQcCRWe-7" target="BtYxnqv_vwhGQVQcCRWe-2" edge="1">
          <mxGeometry width="160" relative="1" as="geometry">
            <mxPoint x="650" y="730" as="sourcePoint" />
            <mxPoint x="810" y="730" as="targetPoint" />
          </mxGeometry>
        </mxCell>
        <mxCell id="BtYxnqv_vwhGQVQcCRWe-10" value="" style="endArrow=none;html=1;edgeStyle=orthogonalEdgeStyle;rounded=0;exitX=0.5;exitY=1;exitDx=0;exitDy=0;entryX=0;entryY=0.5;entryDx=0;entryDy=0;" parent="1" source="5d2195bd80daf111-18" target="BtYxnqv_vwhGQVQcCRWe-2" edge="1">
          <mxGeometry relative="1" as="geometry">
            <mxPoint x="190" y="760" as="sourcePoint" />
            <mxPoint x="350" y="760" as="targetPoint" />
            <Array as="points">
              <mxPoint x="135" y="750" />
              <mxPoint x="580" y="750" />
              <mxPoint x="580" y="680" />
            </Array>
          </mxGeometry>
        </mxCell>
        <mxCell id="BtYxnqv_vwhGQVQcCRWe-13" value="&lt;p style=&quot;margin: 0px ; margin-top: 4px ; text-align: center&quot;&gt;&lt;i&gt;Login&lt;/i&gt;&lt;/p&gt;&lt;hr size=&quot;1&quot;&gt;&lt;p style=&quot;margin: 0px ; margin-left: 4px&quot;&gt;- CPF : String&lt;/p&gt;&lt;p style=&quot;margin: 0px ; margin-left: 4px&quot;&gt;- Senha : String&lt;/p&gt;&lt;p style=&quot;margin: 0px ; margin-left: 4px&quot;&gt;-Acesso : String&lt;/p&gt;&lt;hr size=&quot;1&quot;&gt;&lt;p style=&quot;margin: 0px 0px 0px 4px&quot;&gt;+ GetCPF() : String&lt;/p&gt;&lt;p style=&quot;margin: 0px 0px 0px 4px&quot;&gt;+ GetSenha() : String&lt;/p&gt;&lt;p style=&quot;margin: 0px 0px 0px 4px&quot;&gt;+ GetAcesso() : String&lt;/p&gt;&lt;p style=&quot;margin: 0px 0px 0px 4px&quot;&gt;+ Login() : Void&lt;/p&gt;&lt;p style=&quot;margin: 0px 0px 0px 4px&quot;&gt;+ Validação() : Void&lt;br&gt;&lt;/p&gt;" style="verticalAlign=top;align=left;overflow=fill;fontSize=12;fontFamily=Helvetica;html=1;rounded=0;shadow=0;comic=0;labelBackgroundColor=none;strokeWidth=1" parent="1" vertex="1">
          <mxGeometry x="590" y="10" width="190" height="180" as="geometry" />
        </mxCell>
        <mxCell id="BtYxnqv_vwhGQVQcCRWe-19" value="" style="endArrow=none;html=1;edgeStyle=orthogonalEdgeStyle;rounded=0;entryX=0;entryY=0.5;entryDx=0;entryDy=0;exitX=0.5;exitY=0;exitDx=0;exitDy=0;" parent="1" source="BtYxnqv_vwhGQVQcCRWe-3" target="BtYxnqv_vwhGQVQcCRWe-13" edge="1">
          <mxGeometry relative="1" as="geometry">
            <mxPoint x="425" y="99.5" as="sourcePoint" />
            <mxPoint x="585" y="99.5" as="targetPoint" />
            <Array as="points">
              <mxPoint x="420" y="30" />
              <mxPoint x="560" y="30" />
              <mxPoint x="560" y="100" />
            </Array>
          </mxGeometry>
        </mxCell>
        <mxCell id="BtYxnqv_vwhGQVQcCRWe-22" value="&lt;p style=&quot;margin: 0px ; margin-top: 4px ; text-align: center&quot;&gt;&lt;i&gt;Agenda&lt;/i&gt;&lt;/p&gt;&lt;hr size=&quot;1&quot;&gt;&lt;p style=&quot;margin: 0px ; margin-left: 4px&quot;&gt;- IdPaciente : Inteiro&lt;/p&gt;&lt;p style=&quot;margin: 0px ; margin-left: 4px&quot;&gt;- IdNutricionista: Inteiro&lt;/p&gt;&lt;p style=&quot;margin: 0px ; margin-left: 4px&quot;&gt;- Dt_agenda : Date&lt;/p&gt;&lt;p style=&quot;margin: 0px ; margin-left: 4px&quot;&gt;- Horario : Time&lt;/p&gt;&lt;p style=&quot;margin: 0px ; margin-left: 4px&quot;&gt;- Descricao : Text&lt;/p&gt;&lt;hr size=&quot;1&quot;&gt;&lt;p style=&quot;margin: 0px 0px 0px 4px&quot;&gt;+ Agendar() : Void&lt;/p&gt;&lt;p style=&quot;margin: 0px 0px 0px 4px&quot;&gt;+ Deletar() : Void&lt;/p&gt;&lt;p style=&quot;margin: 0px 0px 0px 4px&quot;&gt;+ Atualizar() : Void&lt;/p&gt;&lt;p style=&quot;margin: 0px 0px 0px 4px&quot;&gt;+ GetIdPaciente() : Inteiro&lt;/p&gt;&lt;p style=&quot;margin: 0px 0px 0px 4px&quot;&gt;+ GetIdNutricionista : Inteiro&lt;/p&gt;&lt;p style=&quot;margin: 0px 0px 0px 4px&quot;&gt;+ GetDt_agenda : Date&lt;/p&gt;&lt;p style=&quot;margin: 0px 0px 0px 4px&quot;&gt;+ GetHorario : Time&lt;/p&gt;&lt;p style=&quot;margin: 0px 0px 0px 4px&quot;&gt;+ GetDescricao : Text&lt;/p&gt;&lt;p style=&quot;margin: 0px 0px 0px 4px&quot;&gt;+ SetIdPaciente() : Inteiro&lt;/p&gt;&lt;p style=&quot;margin: 0px 0px 0px 4px&quot;&gt;+ SetIdNutricionista : Inteiro&lt;/p&gt;&lt;p style=&quot;margin: 0px 0px 0px 4px&quot;&gt;+ SetDt_agenda : Date&lt;/p&gt;&lt;p style=&quot;margin: 0px 0px 0px 4px&quot;&gt;+ SetHorario : Time&lt;/p&gt;&lt;p style=&quot;margin: 0px 0px 0px 4px&quot;&gt;+ SetDescricao : Text&lt;/p&gt;" style="verticalAlign=top;align=left;overflow=fill;fontSize=12;fontFamily=Helvetica;html=1;rounded=0;shadow=0;comic=0;labelBackgroundColor=none;strokeWidth=1" parent="1" vertex="1">
          <mxGeometry x="20" y="800" width="200" height="300" as="geometry" />
        </mxCell>
        <mxCell id="BtYxnqv_vwhGQVQcCRWe-25" value="" style="endArrow=none;html=1;edgeStyle=orthogonalEdgeStyle;rounded=0;entryX=0.25;entryY=1;entryDx=0;entryDy=0;" parent="1" target="BtYxnqv_vwhGQVQcCRWe-2" edge="1">
          <mxGeometry relative="1" as="geometry">
            <mxPoint x="140" y="790" as="sourcePoint" />
            <mxPoint x="370" y="750" as="targetPoint" />
            <Array as="points">
              <mxPoint x="140" y="800" />
              <mxPoint x="140" y="760" />
              <mxPoint x="658" y="760" />
            </Array>
          </mxGeometry>
        </mxCell>
        <mxCell id="BtYxnqv_vwhGQVQcCRWe-28" value="" style="endArrow=none;html=1;edgeStyle=orthogonalEdgeStyle;rounded=0;entryX=0.25;entryY=0;entryDx=0;entryDy=0;" parent="1" target="BtYxnqv_vwhGQVQcCRWe-22" edge="1">
          <mxGeometry relative="1" as="geometry">
            <mxPoint x="70" y="722" as="sourcePoint" />
            <mxPoint x="170" y="730" as="targetPoint" />
            <Array as="points">
              <mxPoint x="70" y="722" />
            </Array>
          </mxGeometry>
        </mxCell>
      </root>
    </mxGraphModel>
  </diagram>
</mxfile>
